<?xml version="1.0" encoding="utf-8"?>
<!-- Generator: Adobe Illustrator 21.1.0, SVG Export Plug-In . SVG Version: 6.00 Build 0)  -->
<svg version="1.1" id="Слой_1" xmlns="http://www.w3.org/2000/svg" xmlns:xlink="http://www.w3.org/1999/xlink" x="0px" y="0px"
	 viewBox="0 0 65 30" style="enable-background:new 0 0 65 30;" xml:space="preserve">
<style type="text/css">
	.st0{fill:#FF5501;}
	.st1{fill:#C7C7C7;}
	.st2{fill:none;}
</style>
<path id="star_4_" class="st0" d="M12.3,4.6c0.1,0.1,0,0.2,0,0.3L8.8,7.5l1.4,4.1c0.1,0.1,0,0.2,0,0.3c-0.1,0.1-0.2,0-0.3,0L6.3,9.3
	l-3.5,2.5c-0.1,0.1-0.2,0-0.4,0c-0.1-0.1-0.1-0.2-0.1-0.3l1.4-4.1L0.2,4.9C0.2,4.8,0.1,4.7,0.2,4.6s0.1-0.2,0.2-0.2l4.3,0l1.4-4.1
	l0.1-0.1l0.1-0.1c0.1,0,0.2,0.1,0.3,0.2l1.3,4.1l4.3,0C12.2,4.5,12.3,4.6,12.3,4.6L12.3,4.6z"/>
<path id="star_1_" class="st0" d="M25.4,4.7c0.1,0.1,0,0.2,0,0.3l-3.5,2.5l1.4,4.1c0.1,0.1,0,0.2,0,0.3s-0.2,0-0.3,0l-3.5-2.5
	l-3.5,2.5c-0.1,0.1-0.2,0-0.4,0c-0.1-0.1-0.1-0.2-0.1-0.3l1.4-4.1L13.3,5c-0.1-0.1-0.1-0.2-0.1-0.3s0.1-0.2,0.2-0.2l4.3,0l1.4-4.1
	l0.1-0.1l0.1-0.1c0.1,0,0.2,0.1,0.3,0.2l1.3,4.1l4.3,0C25.2,4.6,25.3,4.6,25.4,4.7L25.4,4.7z"/>
<path id="star_3_" class="st0" d="M38.6,4.7c0.1,0.1,0,0.2,0,0.3L35,7.5l1.4,4.1c0.1,0.1,0,0.2,0,0.3s-0.2,0-0.3,0l-3.5-2.5
	l-3.5,2.5c-0.1,0.1-0.2,0-0.4,0c-0.1-0.1-0.1-0.2-0.1-0.3L30,7.5l-3.5-2.6c-0.1-0.1-0.1-0.2-0.1-0.3s0.1-0.2,0.2-0.2l4.3,0l1.4-4.1
	l0.1-0.1l0.1-0.1c0.1,0,0.2,0.1,0.3,0.2L34,4.5l4.3,0C38.4,4.5,38.5,4.6,38.6,4.7L38.6,4.7z"/>
<path id="star_2_" class="st0" d="M51.6,4.8c0.1,0.1,0,0.2,0,0.3l-3.5,2.5l1.4,4.1c0.1,0.1,0,0.2,0,0.3c-0.1,0.1-0.2,0-0.3,0
	l-3.5-2.5l-3.5,2.5c-0.1,0.1-0.2,0-0.4,0c-0.1-0.1-0.1-0.2-0.1-0.3L43,7.6L39.6,5c-0.1-0.1-0.1-0.2-0.1-0.3c0-0.1,0.1-0.2,0.2-0.2
	l4.3,0l1.4-4.1l0.1-0.1l0.1-0.1c0.1,0,0.2,0.1,0.3,0.2l1.3,4.1l4.3,0C51.5,4.6,51.6,4.7,51.6,4.8L51.6,4.8z"/>
<path id="star_10_" class="st0" d="M64.7,4.8c0.1,0.1,0,0.2,0,0.3l-3.5,2.5l1.4,4.1c0.1,0.1,0,0.2,0,0.3c-0.1,0.1-0.2,0-0.3,0
	l-3.5-2.5l-3.5,2.5c-0.1,0.1-0.2,0-0.4,0c-0.1-0.1-0.1-0.2-0.1-0.3l1.4-4.1L52.6,5c-0.1-0.1-0.1-0.2-0.1-0.3c0-0.1,0.1-0.2,0.2-0.2
	l4.3,0l1.4-4.1l0.1-0.1l0.1-0.1c0.1,0,0.2,0.1,0.3,0.2l1.3,4.1l4.3,0C64.5,4.6,64.6,4.7,64.7,4.8L64.7,4.8z"/>
<path id="star_15_" class="st1" d="M12.4,21.8c0.1,0.1,0,0.2,0,0.3l-3.5,2.5l1.4,4.1c0.1,0.1,0,0.2,0,0.3c-0.1,0.1-0.2,0-0.3,0
	l-3.5-2.5l-3.5,2.5c-0.1,0.1-0.2,0-0.4,0c-0.1-0.1-0.1-0.2-0.1-0.3l1.4-4.1L0.3,22c-0.1-0.1-0.1-0.2-0.1-0.3c0-0.1,0.1-0.2,0.2-0.2
	l4.3,0l1.4-4.1l0.1-0.1l0.1-0.1c0.1,0,0.2,0.1,0.3,0.2l1.3,4.1l4.3,0C12.3,21.6,12.3,21.7,12.4,21.8L12.4,21.8z"/>
<path id="star_14_" class="st1" d="M25.4,21.9c0.1,0.1,0,0.2,0,0.3l-3.5,2.5l1.4,4.1c0.1,0.1,0,0.2,0,0.3s-0.2,0-0.3,0l-3.5-2.5
	L15.9,29c-0.1,0.1-0.2,0-0.4,0c-0.1-0.1-0.1-0.2-0.1-0.3l1.4-4.1l-3.5-2.6c-0.1-0.1-0.1-0.2-0.1-0.3c0-0.1,0.1-0.2,0.2-0.2l4.3,0
	l1.4-4.1l0.1-0.1l0.1-0.1c0.1,0,0.2,0.1,0.3,0.2l1.3,4.1l4.3,0C25.3,21.7,25.4,21.8,25.4,21.9L25.4,21.9z"/>
<path id="star_13_" class="st1" d="M38.6,21.8c0.1,0.1,0,0.2,0,0.3l-3.5,2.5l1.4,4.1c0.1,0.1,0,0.2,0,0.3c-0.1,0.1-0.2,0-0.3,0
	l-3.5-2.5L29.1,29c-0.1,0.1-0.2,0-0.4,0c-0.1-0.1-0.1-0.2-0.1-0.3l1.4-4.1l-3.5-2.6c-0.1-0.1-0.1-0.2-0.1-0.3c0-0.1,0.1-0.2,0.2-0.2
	l4.3,0l1.4-4.1l0.1-0.1l0.1-0.1c0.1,0,0.2,0.1,0.3,0.2l1.3,4.1l4.3,0C38.5,21.7,38.6,21.7,38.6,21.8L38.6,21.8z"/>
<path id="star_12_" class="st1" d="M51.7,21.9c0.1,0.1,0,0.2,0,0.3l-3.5,2.5l1.4,4.1c0.1,0.1,0,0.2,0,0.3s-0.2,0-0.3,0l-3.5-2.5
	l-3.5,2.5c-0.1,0.1-0.2,0-0.4,0c-0.1-0.1-0.1-0.2-0.1-0.3l1.4-4.1l-3.5-2.6c-0.1-0.1-0.1-0.2-0.1-0.3c0-0.1,0.1-0.2,0.2-0.2l4.3,0
	l1.4-4.1l0.1-0.1l0.1-0.1c0.1,0,0.2,0.1,0.3,0.2l1.3,4.1l4.3,0C51.6,21.7,51.6,21.8,51.7,21.9L51.7,21.9z"/>
<path id="star_11_" class="st1" d="M64.7,21.9c0.1,0.1,0,0.2,0,0.3l-3.5,2.5l1.4,4.1c0.1,0.1,0,0.2,0,0.3s-0.2,0-0.3,0l-3.5-2.5
	l-3.5,2.5c-0.1,0.1-0.2,0-0.4,0c-0.1-0.1-0.1-0.2-0.1-0.3l1.4-4.1l-3.5-2.6c-0.1-0.1-0.1-0.2-0.1-0.3c0-0.1,0.1-0.2,0.2-0.2l4.3,0
	l1.4-4.1l0.1-0.1l0.1-0.1c0.1,0,0.2,0.1,0.3,0.2l1.3,4.1l4.3,0C64.6,21.7,64.7,21.8,64.7,21.9L64.7,21.9z"/>
<path class="st2" d="M66,15.3"/>
<path class="st2" d="M1.5,15.3"/>
</svg>
