<?xml version="1.0" encoding="utf-8"?>
<!-- Generator: Adobe Illustrator 16.0.2, SVG Export Plug-In . SVG Version: 6.00 Build 0)  -->
<!DOCTYPE svg PUBLIC "-//W3C//DTD SVG 1.1//EN" "http://www.w3.org/Graphics/SVG/1.1/DTD/svg11.dtd">
<svg version="1.1" id="Layer_1" xmlns="http://www.w3.org/2000/svg" xmlns:xlink="http://www.w3.org/1999/xlink" x="0px" y="0px"
	 width="150px" height="105px" viewBox="0 0 150 105" enable-background="new 0 0 150 105" xml:space="preserve">
<rect id="BG" display="none" fill="#B7B7B7" width="150" height="105"/>
<g id="lines">
</g>
<g id="ok">
	<g>
		<path fill="#36992A" d="M14.494,3.997c-5.519,0-9.993,4.475-9.993,9.993c0,5.52,4.475,9.993,9.993,9.993s9.993-4.474,9.993-9.993
			C24.487,8.472,20.013,3.997,14.494,3.997z M20.951,11.959l-7.168,7.168c-0.146,0.148-0.384,0.148-0.53,0l-1.059-1.07
			c-0.146-0.146-0.386-0.386-0.53-0.535L9.2,14.93c-0.073-0.072-0.111-0.175-0.111-0.271c0-0.096,0.039-0.189,0.111-0.262
			l1.08-0.974c0.073-0.075,0.171-0.111,0.267-0.111c0.095,0.001,0.19,0.038,0.263,0.111l2.445,2.495c0.145,0.148,0.384,0.148,0.53,0
			l5.579-5.564c0.146-0.147,0.384-0.147,0.529,0l1.06,1.07C21.098,11.57,21.098,11.812,20.951,11.959z"/>
	</g>
</g>
<g id="error">
	<circle fill="#EB1A2E" cx="18.751" cy="44.25" r="14.25"/>
	
		<rect x="11.03" y="42.386" transform="matrix(0.7071 0.7071 -0.7071 0.7071 36.7814 -0.2982)" fill="#F2F2F2" width="15.442" height="3.727"/>
	
		<rect x="11.03" y="42.387" transform="matrix(0.7071 -0.7071 0.7071 0.7071 -25.7983 26.2194)" fill="#F2F2F2" width="15.442" height="3.728"/>
</g>
<g id="info">
	<circle fill="#E04009" cx="53.75" cy="44.25" r="14.25"/>
	<rect x="51.458" y="41.583" fill="#F2F2F2" width="3.875" height="10.25"/>
	<circle fill="#F2F2F2" cx="53.349" cy="37.255" r="2.047"/>
</g>
<g id="cart">
	<circle fill="#FFFFFF" cx="39.281" cy="21.498" r="1.34"/>
	<circle fill="#FFFFFF" cx="45.983" cy="21.498" r="1.34"/>
	<polygon fill="#FFFFFF" points="35.931,10.775 49.333,10.775 46.988,18.147 37.941,18.147 	"/>
	<path fill="none" stroke="#FFFFFF" stroke-width="2" stroke-linecap="round" stroke-linejoin="round" stroke-miterlimit="10" d="
		M49.333,10.775H35.931l1.741,6.384c0.16,0.583,0.689,0.988,1.294,0.988h7.355c0.595,0,1.118-0.392,1.285-0.962l2.856-9.709
		c0.125-0.428,0.518-0.722,0.964-0.722h1.259"/>
</g>
<g id="cart_2" display="none">
	<g id="Page-1" display="inline">
		<g id="Core" transform="translate(-212.000000, -422.000000)">
			<g id="shopping-cart" transform="translate(212.000000, 422.000000)">
				<path id="Shape" fill="#FFFFFF" d="M47.304,19.841c-0.986,0-1.793,0.808-1.793,1.793s0.807,1.793,1.793,1.793
					s1.793-0.808,1.793-1.793S48.291,19.841,47.304,19.841L47.304,19.841z M52.685,5.494h-2.959l-0.808,1.793H35.647
					c-0.538,0-0.897,0.359-0.897,0.896c0,0.18,0,0.269,0.18,0.449l3.228,5.829c0.269,0.538,0.808,0.896,1.525,0.896h6.636
					l0.807,1.525v0.089c0,0.09-0.089,0.18-0.179,0.18H36.543v1.793h10.761c0.986,0,1.793-0.807,1.793-1.793
					c0-0.269-0.09-0.628-0.18-0.897l-1.255-2.152l3.229-6.815h1.793V5.494L52.685,5.494z M38.337,19.841
					c-0.986,0-1.793,0.808-1.793,1.793s0.808,1.793,1.793,1.793s1.793-0.808,1.793-1.793S39.323,19.841,38.337,19.841L38.337,19.841
					z"/>
			</g>
		</g>
	</g>
</g>
<g id="cart_3" display="none">
	<g display="inline">
		<path fill="#FFFFFF" d="M34.967,8.925l1.609,5.534c0.09,0.292,0.412,0.528,0.717,0.528h7.649c0.306,0,0.627-0.237,0.718-0.528
			l1.846-5.407c0.113-0.363-0.104-0.656-0.483-0.656H35.356C35.05,8.396,34.876,8.633,34.967,8.925z"/>
		<circle fill="#FFFFFF" cx="45.968" cy="21.216" r="1.745"/>
		<circle fill="#FFFFFF" cx="38.583" cy="21.238" r="1.745"/>
		<path fill="#FFFFFF" d="M35.499,17.752c0,0.546,0.442,0.988,0.988,0.988H48.1l4.086-11.757h1.776c0.546,0,0.988-0.442,0.988-0.988
			s-0.442-0.988-0.988-0.988h-3.182l-4.086,11.757H36.487C35.941,16.764,35.499,17.206,35.499,17.752z"/>
	</g>
</g>
</svg>
